<mxfile host="app.diagrams.net" modified="2024-01-25T10:20:01.379Z" agent="Mozilla/5.0 (Windows NT 10.0; Win64; x64) AppleWebKit/537.36 (KHTML, like Gecko) Chrome/120.0.0.0 Safari/537.36 Edg/120.0.0.0" etag="Ze_BfnueVdG7Sv_3VDZn" version="23.0.0" type="github">
  <diagram name="第 1 页" id="JbuPutZytbCK25REN7PR">
    <mxGraphModel dx="946" dy="613" grid="1" gridSize="10" guides="1" tooltips="1" connect="1" arrows="1" fold="1" page="1" pageScale="1" pageWidth="827" pageHeight="1169" math="0" shadow="0">
      <root>
        <mxCell id="0" />
        <mxCell id="1" parent="0" />
        <mxCell id="YvnnRUKu41tw3babr-Li-1" value="" style="rounded=0;whiteSpace=wrap;html=1;" vertex="1" parent="1">
          <mxGeometry x="10" y="120" width="690" height="300" as="geometry" />
        </mxCell>
        <mxCell id="YvnnRUKu41tw3babr-Li-2" value="华为账号" style="rounded=0;whiteSpace=wrap;html=1;" vertex="1" parent="1">
          <mxGeometry x="700" y="200" width="120" height="50" as="geometry" />
        </mxCell>
        <mxCell id="YvnnRUKu41tw3babr-Li-3" value="HealthDataService" style="rounded=0;whiteSpace=wrap;html=1;" vertex="1" parent="1">
          <mxGeometry x="20" y="336" width="120" height="60" as="geometry" />
        </mxCell>
        <mxCell id="YvnnRUKu41tw3babr-Li-4" value="HealthOperationService" style="rounded=0;whiteSpace=wrap;html=1;" vertex="1" parent="1">
          <mxGeometry x="152" y="336" width="130" height="60" as="geometry" />
        </mxCell>
        <mxCell id="YvnnRUKu41tw3babr-Li-5" value="HealthAdviceService" style="rounded=0;whiteSpace=wrap;html=1;" vertex="1" parent="1">
          <mxGeometry x="290" y="336" width="120" height="60" as="geometry" />
        </mxCell>
        <mxCell id="YvnnRUKu41tw3babr-Li-6" value="HealthConnectService" style="rounded=0;whiteSpace=wrap;html=1;" vertex="1" parent="1">
          <mxGeometry x="420" y="336" width="120" height="60" as="geometry" />
        </mxCell>
        <mxCell id="YvnnRUKu41tw3babr-Li-7" value="HealthProfitService" style="rounded=0;whiteSpace=wrap;html=1;" vertex="1" parent="1">
          <mxGeometry x="550" y="336" width="120" height="60" as="geometry" />
        </mxCell>
        <mxCell id="YvnnRUKu41tw3babr-Li-8" value="CloudMap&lt;br&gt;(服务注册与发现、中间件注册与发现)" style="rounded=0;whiteSpace=wrap;html=1;" vertex="1" parent="1">
          <mxGeometry x="700" y="270" width="120" height="60" as="geometry" />
        </mxCell>
        <mxCell id="YvnnRUKu41tw3babr-Li-17" style="edgeStyle=orthogonalEdgeStyle;rounded=0;orthogonalLoop=1;jettySize=auto;html=1;" edge="1" parent="1" source="YvnnRUKu41tw3babr-Li-10" target="YvnnRUKu41tw3babr-Li-15">
          <mxGeometry relative="1" as="geometry" />
        </mxCell>
        <mxCell id="YvnnRUKu41tw3babr-Li-19" style="edgeStyle=orthogonalEdgeStyle;rounded=0;orthogonalLoop=1;jettySize=auto;html=1;" edge="1" parent="1" source="YvnnRUKu41tw3babr-Li-10" target="YvnnRUKu41tw3babr-Li-16">
          <mxGeometry relative="1" as="geometry">
            <Array as="points">
              <mxPoint x="130" y="100" />
              <mxPoint x="380" y="100" />
            </Array>
          </mxGeometry>
        </mxCell>
        <mxCell id="YvnnRUKu41tw3babr-Li-10" value="" style="verticalLabelPosition=bottom;verticalAlign=top;html=1;shadow=0;dashed=0;strokeWidth=1;shape=mxgraph.android.phone2;strokeColor=#c0c0c0;" vertex="1" parent="1">
          <mxGeometry x="110" y="10" width="40" height="80" as="geometry" />
        </mxCell>
        <mxCell id="YvnnRUKu41tw3babr-Li-21" style="edgeStyle=orthogonalEdgeStyle;rounded=0;orthogonalLoop=1;jettySize=auto;html=1;exitX=0;exitY=0.5;exitDx=0;exitDy=0;exitPerimeter=0;" edge="1" parent="1" source="YvnnRUKu41tw3babr-Li-11" target="YvnnRUKu41tw3babr-Li-15">
          <mxGeometry relative="1" as="geometry">
            <Array as="points">
              <mxPoint x="210" y="50" />
            </Array>
          </mxGeometry>
        </mxCell>
        <mxCell id="YvnnRUKu41tw3babr-Li-11" value="" style="fontColor=#0066CC;verticalAlign=top;verticalLabelPosition=bottom;labelPosition=center;align=center;html=1;outlineConnect=0;fillColor=#CCCCCC;strokeColor=#6881B3;gradientColor=none;gradientDirection=north;strokeWidth=2;shape=mxgraph.networks.mobile;" vertex="1" parent="1">
          <mxGeometry x="250" y="10" width="40" height="80" as="geometry" />
        </mxCell>
        <mxCell id="YvnnRUKu41tw3babr-Li-28" style="edgeStyle=orthogonalEdgeStyle;rounded=0;orthogonalLoop=1;jettySize=auto;html=1;exitX=0.5;exitY=1;exitDx=0;exitDy=0;exitPerimeter=0;" edge="1" parent="1" source="YvnnRUKu41tw3babr-Li-13" target="YvnnRUKu41tw3babr-Li-24">
          <mxGeometry relative="1" as="geometry" />
        </mxCell>
        <mxCell id="YvnnRUKu41tw3babr-Li-13" value="ELB" style="fontColor=#0066CC;verticalAlign=top;verticalLabelPosition=bottom;labelPosition=center;align=center;html=1;outlineConnect=0;fillColor=#CCCCCC;strokeColor=#6881B3;gradientColor=none;gradientDirection=north;strokeWidth=2;shape=mxgraph.networks.load_balancer;" vertex="1" parent="1">
          <mxGeometry x="28" y="230" width="40" height="20" as="geometry" />
        </mxCell>
        <mxCell id="YvnnRUKu41tw3babr-Li-26" value="" style="edgeStyle=orthogonalEdgeStyle;rounded=0;orthogonalLoop=1;jettySize=auto;html=1;" edge="1" parent="1" source="YvnnRUKu41tw3babr-Li-14" target="YvnnRUKu41tw3babr-Li-25">
          <mxGeometry relative="1" as="geometry" />
        </mxCell>
        <mxCell id="YvnnRUKu41tw3babr-Li-14" value="ELB" style="fontColor=#0066CC;verticalAlign=top;verticalLabelPosition=bottom;labelPosition=center;align=center;html=1;outlineConnect=0;fillColor=#CCCCCC;strokeColor=#6881B3;gradientColor=none;gradientDirection=north;strokeWidth=2;shape=mxgraph.networks.load_balancer;" vertex="1" parent="1">
          <mxGeometry x="88" y="230" width="40" height="20" as="geometry" />
        </mxCell>
        <mxCell id="YvnnRUKu41tw3babr-Li-15" value="华为 DNS" style="fontColor=#0066CC;verticalAlign=top;verticalLabelPosition=bottom;labelPosition=center;align=center;html=1;outlineConnect=0;fillColor=#CCCCCC;strokeColor=#6881B3;gradientColor=none;gradientDirection=north;strokeWidth=2;shape=mxgraph.networks.proxy_server;" vertex="1" parent="1">
          <mxGeometry x="160" y="130" width="90" height="50" as="geometry" />
        </mxCell>
        <mxCell id="YvnnRUKu41tw3babr-Li-16" value="阿里 DNS" style="fontColor=#0066CC;verticalAlign=top;verticalLabelPosition=bottom;labelPosition=center;align=center;html=1;outlineConnect=0;fillColor=#CCCCCC;strokeColor=#6881B3;gradientColor=none;gradientDirection=north;strokeWidth=2;shape=mxgraph.networks.proxy_server;" vertex="1" parent="1">
          <mxGeometry x="324" y="130" width="90" height="50" as="geometry" />
        </mxCell>
        <mxCell id="YvnnRUKu41tw3babr-Li-20" style="edgeStyle=orthogonalEdgeStyle;rounded=0;orthogonalLoop=1;jettySize=auto;html=1;exitX=0.5;exitY=1;exitDx=0;exitDy=0;exitPerimeter=0;entryX=0.5;entryY=0;entryDx=0;entryDy=0;entryPerimeter=0;" edge="1" parent="1" source="YvnnRUKu41tw3babr-Li-11" target="YvnnRUKu41tw3babr-Li-16">
          <mxGeometry relative="1" as="geometry" />
        </mxCell>
        <mxCell id="YvnnRUKu41tw3babr-Li-22" style="edgeStyle=orthogonalEdgeStyle;rounded=0;orthogonalLoop=1;jettySize=auto;html=1;exitX=0;exitY=0.93;exitDx=0;exitDy=0;exitPerimeter=0;entryX=0.5;entryY=0;entryDx=0;entryDy=0;entryPerimeter=0;" edge="1" parent="1" source="YvnnRUKu41tw3babr-Li-15" target="YvnnRUKu41tw3babr-Li-13">
          <mxGeometry relative="1" as="geometry" />
        </mxCell>
        <mxCell id="YvnnRUKu41tw3babr-Li-23" style="edgeStyle=orthogonalEdgeStyle;rounded=0;orthogonalLoop=1;jettySize=auto;html=1;exitX=0.5;exitY=0.94;exitDx=0;exitDy=0;exitPerimeter=0;entryX=0.5;entryY=0;entryDx=0;entryDy=0;entryPerimeter=0;" edge="1" parent="1" source="YvnnRUKu41tw3babr-Li-15" target="YvnnRUKu41tw3babr-Li-14">
          <mxGeometry relative="1" as="geometry" />
        </mxCell>
        <mxCell id="YvnnRUKu41tw3babr-Li-39" value="" style="edgeStyle=orthogonalEdgeStyle;rounded=0;orthogonalLoop=1;jettySize=auto;html=1;" edge="1" parent="1" source="YvnnRUKu41tw3babr-Li-24" target="YvnnRUKu41tw3babr-Li-3">
          <mxGeometry relative="1" as="geometry">
            <Array as="points">
              <mxPoint x="48" y="320" />
              <mxPoint x="80" y="320" />
            </Array>
          </mxGeometry>
        </mxCell>
        <mxCell id="YvnnRUKu41tw3babr-Li-24" value="SLB" style="fontColor=#0066CC;verticalAlign=top;verticalLabelPosition=bottom;labelPosition=center;align=center;html=1;outlineConnect=0;fillColor=#CCCCCC;strokeColor=#6881B3;gradientColor=none;gradientDirection=north;strokeWidth=2;shape=mxgraph.networks.load_balancer;" vertex="1" parent="1">
          <mxGeometry x="28" y="290" width="40" height="20" as="geometry" />
        </mxCell>
        <mxCell id="YvnnRUKu41tw3babr-Li-40" value="" style="edgeStyle=orthogonalEdgeStyle;rounded=0;orthogonalLoop=1;jettySize=auto;html=1;" edge="1" parent="1" source="YvnnRUKu41tw3babr-Li-25" target="YvnnRUKu41tw3babr-Li-3">
          <mxGeometry relative="1" as="geometry">
            <Array as="points">
              <mxPoint x="108" y="320" />
              <mxPoint x="80" y="320" />
            </Array>
          </mxGeometry>
        </mxCell>
        <mxCell id="YvnnRUKu41tw3babr-Li-25" value="SLB" style="fontColor=#0066CC;verticalAlign=top;verticalLabelPosition=bottom;labelPosition=center;align=center;html=1;outlineConnect=0;fillColor=#CCCCCC;strokeColor=#6881B3;gradientColor=none;gradientDirection=north;strokeWidth=2;shape=mxgraph.networks.load_balancer;" vertex="1" parent="1">
          <mxGeometry x="88" y="290" width="40" height="20" as="geometry" />
        </mxCell>
        <mxCell id="YvnnRUKu41tw3babr-Li-29" style="edgeStyle=orthogonalEdgeStyle;rounded=0;orthogonalLoop=1;jettySize=auto;html=1;exitX=0.9;exitY=1;exitDx=0;exitDy=0;exitPerimeter=0;entryX=0.05;entryY=0.05;entryDx=0;entryDy=0;entryPerimeter=0;" edge="1" parent="1" source="YvnnRUKu41tw3babr-Li-13" target="YvnnRUKu41tw3babr-Li-25">
          <mxGeometry relative="1" as="geometry">
            <Array as="points">
              <mxPoint x="64" y="260" />
              <mxPoint x="90" y="260" />
            </Array>
          </mxGeometry>
        </mxCell>
        <mxCell id="YvnnRUKu41tw3babr-Li-30" style="edgeStyle=orthogonalEdgeStyle;rounded=0;orthogonalLoop=1;jettySize=auto;html=1;exitX=0.1;exitY=1;exitDx=0;exitDy=0;exitPerimeter=0;entryX=0.775;entryY=0.25;entryDx=0;entryDy=0;entryPerimeter=0;" edge="1" parent="1" source="YvnnRUKu41tw3babr-Li-14" target="YvnnRUKu41tw3babr-Li-24">
          <mxGeometry relative="1" as="geometry">
            <Array as="points">
              <mxPoint x="92" y="270" />
              <mxPoint x="59" y="270" />
            </Array>
          </mxGeometry>
        </mxCell>
      </root>
    </mxGraphModel>
  </diagram>
</mxfile>
